# xmcd
#
# Track frame offsets:
#	150
#	9824
#	33968
#	47523
#	62369
#	85076
#	101805
#	117966
#	137043
#	154295
#	166313
#	195698
#
# Disc length: 2732 seconds
#
# Revision: 1
# Processed by: cddbd v1.4PL0 Copyright (c) Steve Scherf et al.
# Submitted via: audiograbber 1.80
#
DISCID=8e0aaa0c
DTITLE=Psychedelic Cowboys - Tragic Songs and Hop-A-Longs
DYEAR=1900
DGENRE=
TTITLE0=Kaleidoscope Canyon Drive
TTITLE1=Life's Great
TTITLE2=Goodbye Louise
TTITLE3=Mt. Airy Mistake
TTITLE4=Common Man (You Know Ny Name)
TTITLE5=Wile Coyote
TTITLE6=Say a Prayer (Cowboys and Indians)
TTITLE7=Oklahoma
TTITLE8=Oh Why (She's Gone)
TTITLE9=Hippie Girls and Sippin' Whiskey
TTITLE10=Good Ole Boy in Gomorrha (Ode to L.A.)
TTITLE11=California Country Scene
EXTD=
EXTT0=
EXTT1=
EXTT2=
EXTT3=
EXTT4=
EXTT5=
EXTT6=
EXTT7=
EXTT8=
EXTT9=
EXTT10=
EXTT11=
PLAYORDER=
